<mxfile host="Electron" agent="Mozilla/5.0 (Windows NT 10.0; Win64; x64) AppleWebKit/537.36 (KHTML, like Gecko) draw.io/26.0.9 Chrome/128.0.6613.186 Electron/32.2.5 Safari/537.36" version="26.0.9">
  <diagram name="Page-1" id="ccOiG0BTBN2hYT7AEqhy">
    <mxGraphModel dx="1727" dy="1010" grid="1" gridSize="10" guides="1" tooltips="1" connect="1" arrows="1" fold="1" page="1" pageScale="1" pageWidth="827" pageHeight="1169" math="0" shadow="0">
      <root>
        <mxCell id="0" />
        <mxCell id="1" parent="0" />
        <mxCell id="FtqwM716V6NRXMkaAwhL-1" value="" style="rounded=0;whiteSpace=wrap;html=1;fillColor=none;" parent="1" vertex="1">
          <mxGeometry x="20" y="50" width="1090" height="580" as="geometry" />
        </mxCell>
        <mxCell id="6N6tjkP8SVQyuSS9ViZL-1" value="" style="rounded=0;whiteSpace=wrap;html=1;fillColor=none;dashed=1;" parent="1" vertex="1">
          <mxGeometry x="40" y="160" width="200" height="440" as="geometry" />
        </mxCell>
        <mxCell id="6N6tjkP8SVQyuSS9ViZL-5" value="&#xa;&lt;b style=&quot;forced-color-adjust: none; color: rgb(0, 0, 0); font-family: Helvetica; font-size: 12px; font-style: normal; font-variant-ligatures: normal; font-variant-caps: normal; letter-spacing: normal; orphans: 2; text-align: center; text-indent: 0px; text-transform: none; widows: 2; word-spacing: 0px; -webkit-text-stroke-width: 0px; white-space: normal; background-color: rgb(251, 251, 251); text-decoration-thickness: initial; text-decoration-style: initial; text-decoration-color: initial;&quot;&gt;&lt;font style=&quot;forced-color-adjust: none; font-size: 20px;&quot;&gt;Sources&lt;/font&gt;&lt;/b&gt;&#xa;&#xa;" style="text;html=1;align=center;verticalAlign=middle;whiteSpace=wrap;rounded=0;fillColor=default;" parent="1" vertex="1">
          <mxGeometry x="91" y="153" width="100" height="18" as="geometry" />
        </mxCell>
        <mxCell id="6N6tjkP8SVQyuSS9ViZL-26" style="edgeStyle=orthogonalEdgeStyle;rounded=0;orthogonalLoop=1;jettySize=auto;html=1;entryX=0;entryY=0.5;entryDx=0;entryDy=0;" parent="1" source="6N6tjkP8SVQyuSS9ViZL-6" target="6N6tjkP8SVQyuSS9ViZL-14" edge="1">
          <mxGeometry relative="1" as="geometry" />
        </mxCell>
        <mxCell id="6N6tjkP8SVQyuSS9ViZL-27" style="edgeStyle=orthogonalEdgeStyle;rounded=0;orthogonalLoop=1;jettySize=auto;html=1;entryX=0;entryY=0.5;entryDx=0;entryDy=0;" parent="1" source="6N6tjkP8SVQyuSS9ViZL-6" target="6N6tjkP8SVQyuSS9ViZL-22" edge="1">
          <mxGeometry relative="1" as="geometry" />
        </mxCell>
        <mxCell id="6N6tjkP8SVQyuSS9ViZL-28" style="edgeStyle=orthogonalEdgeStyle;rounded=0;orthogonalLoop=1;jettySize=auto;html=1;entryX=0;entryY=0.5;entryDx=0;entryDy=0;" parent="1" source="6N6tjkP8SVQyuSS9ViZL-6" target="6N6tjkP8SVQyuSS9ViZL-17" edge="1">
          <mxGeometry relative="1" as="geometry" />
        </mxCell>
        <mxCell id="6N6tjkP8SVQyuSS9ViZL-6" value="" style="image;aspect=fixed;html=1;points=[];align=center;fontSize=12;image=img/lib/azure2/general/Folder_Blank.svg;" parent="1" vertex="1">
          <mxGeometry x="101.93" y="290" width="49.29" height="40" as="geometry" />
        </mxCell>
        <mxCell id="6N6tjkP8SVQyuSS9ViZL-7" value="&lt;b&gt;&lt;font style=&quot;font-size: 18px;&quot;&gt;CRM&lt;/font&gt;&lt;/b&gt;" style="text;html=1;align=center;verticalAlign=middle;whiteSpace=wrap;rounded=0;" parent="1" vertex="1">
          <mxGeometry x="92.93" y="330" width="60" height="30" as="geometry" />
        </mxCell>
        <mxCell id="6N6tjkP8SVQyuSS9ViZL-29" style="edgeStyle=orthogonalEdgeStyle;rounded=0;orthogonalLoop=1;jettySize=auto;html=1;entryX=0;entryY=0.5;entryDx=0;entryDy=0;" parent="1" source="6N6tjkP8SVQyuSS9ViZL-8" target="6N6tjkP8SVQyuSS9ViZL-23" edge="1">
          <mxGeometry relative="1" as="geometry" />
        </mxCell>
        <mxCell id="6N6tjkP8SVQyuSS9ViZL-31" style="edgeStyle=orthogonalEdgeStyle;rounded=0;orthogonalLoop=1;jettySize=auto;html=1;entryX=0;entryY=0.5;entryDx=0;entryDy=0;" parent="1" source="6N6tjkP8SVQyuSS9ViZL-8" target="6N6tjkP8SVQyuSS9ViZL-25" edge="1">
          <mxGeometry relative="1" as="geometry" />
        </mxCell>
        <mxCell id="6N6tjkP8SVQyuSS9ViZL-33" style="edgeStyle=orthogonalEdgeStyle;rounded=0;orthogonalLoop=1;jettySize=auto;html=1;entryX=0;entryY=0.5;entryDx=0;entryDy=0;" parent="1" source="6N6tjkP8SVQyuSS9ViZL-8" target="6N6tjkP8SVQyuSS9ViZL-24" edge="1">
          <mxGeometry relative="1" as="geometry" />
        </mxCell>
        <mxCell id="6N6tjkP8SVQyuSS9ViZL-8" value="" style="image;aspect=fixed;html=1;points=[];align=center;fontSize=12;image=img/lib/azure2/general/Folder_Blank.svg;" parent="1" vertex="1">
          <mxGeometry x="98.29" y="470" width="49.29" height="40" as="geometry" />
        </mxCell>
        <mxCell id="6N6tjkP8SVQyuSS9ViZL-9" value="&lt;b&gt;&lt;font style=&quot;font-size: 18px;&quot;&gt;ERP&lt;/font&gt;&lt;/b&gt;" style="text;html=1;align=center;verticalAlign=middle;whiteSpace=wrap;rounded=0;" parent="1" vertex="1">
          <mxGeometry x="89.29" y="510" width="60" height="30" as="geometry" />
        </mxCell>
        <mxCell id="6N6tjkP8SVQyuSS9ViZL-12" value="" style="rounded=1;whiteSpace=wrap;html=1;fillColor=none;strokeColor=#d79b00;arcSize=6;" parent="1" vertex="1">
          <mxGeometry x="320" y="210" width="200" height="390" as="geometry" />
        </mxCell>
        <mxCell id="6N6tjkP8SVQyuSS9ViZL-13" value="&lt;b&gt;&lt;font style=&quot;font-size: 18px;&quot;&gt;Bronze Layer&lt;/font&gt;&lt;/b&gt;" style="rounded=1;whiteSpace=wrap;html=1;fillColor=#ffe6cc;strokeColor=#d79b00;" parent="1" vertex="1">
          <mxGeometry x="320" y="160" width="200" height="40" as="geometry" />
        </mxCell>
        <mxCell id="6N6tjkP8SVQyuSS9ViZL-42" style="edgeStyle=orthogonalEdgeStyle;rounded=0;orthogonalLoop=1;jettySize=auto;html=1;exitX=1;exitY=0.5;exitDx=0;exitDy=0;" parent="1" source="6N6tjkP8SVQyuSS9ViZL-14" target="6N6tjkP8SVQyuSS9ViZL-36" edge="1">
          <mxGeometry relative="1" as="geometry" />
        </mxCell>
        <mxCell id="6N6tjkP8SVQyuSS9ViZL-14" value="&lt;b&gt;crm_sales_details&lt;/b&gt;" style="rounded=1;whiteSpace=wrap;html=1;fillColor=#ffe6cc;strokeColor=#d79b00;" parent="1" vertex="1">
          <mxGeometry x="340" y="240" width="160" height="40" as="geometry" />
        </mxCell>
        <mxCell id="6N6tjkP8SVQyuSS9ViZL-43" style="edgeStyle=orthogonalEdgeStyle;rounded=0;orthogonalLoop=1;jettySize=auto;html=1;exitX=1;exitY=0.5;exitDx=0;exitDy=0;entryX=0;entryY=0.5;entryDx=0;entryDy=0;" parent="1" source="6N6tjkP8SVQyuSS9ViZL-17" target="6N6tjkP8SVQyuSS9ViZL-37" edge="1">
          <mxGeometry relative="1" as="geometry" />
        </mxCell>
        <mxCell id="6N6tjkP8SVQyuSS9ViZL-17" value="&lt;b&gt;crm_cust_info&lt;/b&gt;" style="rounded=1;whiteSpace=wrap;html=1;fillColor=#ffe6cc;strokeColor=#d79b00;" parent="1" vertex="1">
          <mxGeometry x="340" y="290" width="160" height="40" as="geometry" />
        </mxCell>
        <mxCell id="6N6tjkP8SVQyuSS9ViZL-44" style="edgeStyle=orthogonalEdgeStyle;rounded=0;orthogonalLoop=1;jettySize=auto;html=1;exitX=1;exitY=0.5;exitDx=0;exitDy=0;entryX=0;entryY=0.5;entryDx=0;entryDy=0;" parent="1" source="6N6tjkP8SVQyuSS9ViZL-22" target="6N6tjkP8SVQyuSS9ViZL-38" edge="1">
          <mxGeometry relative="1" as="geometry" />
        </mxCell>
        <mxCell id="6N6tjkP8SVQyuSS9ViZL-22" value="&lt;b&gt;crm_prd_info&lt;/b&gt;" style="rounded=1;whiteSpace=wrap;html=1;fillColor=#ffe6cc;strokeColor=#d79b00;" parent="1" vertex="1">
          <mxGeometry x="340" y="340" width="160" height="40" as="geometry" />
        </mxCell>
        <mxCell id="6N6tjkP8SVQyuSS9ViZL-45" style="edgeStyle=orthogonalEdgeStyle;rounded=0;orthogonalLoop=1;jettySize=auto;html=1;exitX=1;exitY=0.5;exitDx=0;exitDy=0;" parent="1" source="6N6tjkP8SVQyuSS9ViZL-23" target="6N6tjkP8SVQyuSS9ViZL-39" edge="1">
          <mxGeometry relative="1" as="geometry" />
        </mxCell>
        <mxCell id="6N6tjkP8SVQyuSS9ViZL-23" value="&lt;b&gt;erp_cust_az12&lt;/b&gt;" style="rounded=1;whiteSpace=wrap;html=1;fillColor=#ffe6cc;strokeColor=#d79b00;" parent="1" vertex="1">
          <mxGeometry x="340" y="420" width="160" height="40" as="geometry" />
        </mxCell>
        <mxCell id="6N6tjkP8SVQyuSS9ViZL-46" style="edgeStyle=orthogonalEdgeStyle;rounded=0;orthogonalLoop=1;jettySize=auto;html=1;exitX=1;exitY=0.5;exitDx=0;exitDy=0;entryX=0;entryY=0.5;entryDx=0;entryDy=0;" parent="1" source="6N6tjkP8SVQyuSS9ViZL-24" target="6N6tjkP8SVQyuSS9ViZL-40" edge="1">
          <mxGeometry relative="1" as="geometry" />
        </mxCell>
        <mxCell id="6N6tjkP8SVQyuSS9ViZL-24" value="&lt;b&gt;erp_loc_a101&lt;/b&gt;" style="rounded=1;whiteSpace=wrap;html=1;fillColor=#ffe6cc;strokeColor=#d79b00;" parent="1" vertex="1">
          <mxGeometry x="340" y="470" width="160" height="40" as="geometry" />
        </mxCell>
        <mxCell id="6N6tjkP8SVQyuSS9ViZL-47" style="edgeStyle=orthogonalEdgeStyle;rounded=0;orthogonalLoop=1;jettySize=auto;html=1;exitX=1;exitY=0.5;exitDx=0;exitDy=0;entryX=0;entryY=0.5;entryDx=0;entryDy=0;" parent="1" source="6N6tjkP8SVQyuSS9ViZL-25" target="6N6tjkP8SVQyuSS9ViZL-41" edge="1">
          <mxGeometry relative="1" as="geometry" />
        </mxCell>
        <mxCell id="6N6tjkP8SVQyuSS9ViZL-25" value="&lt;b&gt;erp_px_cat_g1v2&lt;/b&gt;" style="rounded=1;whiteSpace=wrap;html=1;fillColor=#ffe6cc;strokeColor=#d79b00;" parent="1" vertex="1">
          <mxGeometry x="340" y="520" width="160" height="40" as="geometry" />
        </mxCell>
        <mxCell id="6N6tjkP8SVQyuSS9ViZL-34" value="" style="rounded=1;whiteSpace=wrap;html=1;fillColor=none;strokeColor=#DBDBDB;arcSize=7;" parent="1" vertex="1">
          <mxGeometry x="600" y="210" width="200" height="390" as="geometry" />
        </mxCell>
        <mxCell id="6N6tjkP8SVQyuSS9ViZL-35" value="&lt;b&gt;&lt;font style=&quot;font-size: 18px;&quot;&gt;Silver Layer&lt;/font&gt;&lt;/b&gt;" style="rounded=1;whiteSpace=wrap;html=1;fillColor=#EBEBEB;strokeColor=#DBDBDB;" parent="1" vertex="1">
          <mxGeometry x="600" y="160" width="200" height="40" as="geometry" />
        </mxCell>
        <mxCell id="NNrOqyB_ExLqhprsF-vT-17" style="edgeStyle=orthogonalEdgeStyle;rounded=0;orthogonalLoop=1;jettySize=auto;html=1;exitX=1;exitY=0.5;exitDx=0;exitDy=0;" parent="1" source="6N6tjkP8SVQyuSS9ViZL-36" target="NNrOqyB_ExLqhprsF-vT-3" edge="1">
          <mxGeometry relative="1" as="geometry" />
        </mxCell>
        <mxCell id="6N6tjkP8SVQyuSS9ViZL-36" value="&lt;b&gt;crm_sales_details&lt;/b&gt;" style="rounded=1;whiteSpace=wrap;html=1;fillColor=#EBEBEB;strokeColor=#DBDBDB;" parent="1" vertex="1">
          <mxGeometry x="620" y="240" width="160" height="40" as="geometry" />
        </mxCell>
        <mxCell id="NNrOqyB_ExLqhprsF-vT-18" style="rounded=0;orthogonalLoop=1;jettySize=auto;html=1;exitX=1;exitY=0.5;exitDx=0;exitDy=0;entryX=0;entryY=0.5;entryDx=0;entryDy=0;jumpStyle=gap;" parent="1" source="6N6tjkP8SVQyuSS9ViZL-37" target="NNrOqyB_ExLqhprsF-vT-5" edge="1">
          <mxGeometry relative="1" as="geometry" />
        </mxCell>
        <mxCell id="6N6tjkP8SVQyuSS9ViZL-37" value="&lt;b&gt;crm_cust_info&lt;/b&gt;" style="rounded=1;whiteSpace=wrap;html=1;fillColor=#EBEBEB;strokeColor=#DBDBDB;" parent="1" vertex="1">
          <mxGeometry x="620" y="290" width="160" height="40" as="geometry" />
        </mxCell>
        <mxCell id="NNrOqyB_ExLqhprsF-vT-22" style="rounded=0;orthogonalLoop=1;jettySize=auto;html=1;exitX=1;exitY=0.5;exitDx=0;exitDy=0;entryX=0;entryY=0.5;entryDx=0;entryDy=0;jumpStyle=gap;" parent="1" source="6N6tjkP8SVQyuSS9ViZL-38" target="NNrOqyB_ExLqhprsF-vT-4" edge="1">
          <mxGeometry relative="1" as="geometry" />
        </mxCell>
        <mxCell id="6N6tjkP8SVQyuSS9ViZL-38" value="&lt;b&gt;crm_prd_info&lt;/b&gt;" style="rounded=1;whiteSpace=wrap;html=1;fillColor=#EBEBEB;strokeColor=#DBDBDB;" parent="1" vertex="1">
          <mxGeometry x="620" y="340" width="160" height="40" as="geometry" />
        </mxCell>
        <mxCell id="NNrOqyB_ExLqhprsF-vT-21" style="rounded=0;orthogonalLoop=1;jettySize=auto;html=1;exitX=1;exitY=0.5;exitDx=0;exitDy=0;entryX=0;entryY=0.5;entryDx=0;entryDy=0;jumpStyle=gap;" parent="1" source="6N6tjkP8SVQyuSS9ViZL-39" target="NNrOqyB_ExLqhprsF-vT-5" edge="1">
          <mxGeometry relative="1" as="geometry" />
        </mxCell>
        <mxCell id="6N6tjkP8SVQyuSS9ViZL-39" value="&lt;b&gt;erp_cust_az12&lt;/b&gt;" style="rounded=1;whiteSpace=wrap;html=1;fillColor=#EBEBEB;strokeColor=#DBDBDB;" parent="1" vertex="1">
          <mxGeometry x="620" y="420" width="160" height="40" as="geometry" />
        </mxCell>
        <mxCell id="NNrOqyB_ExLqhprsF-vT-19" style="rounded=0;orthogonalLoop=1;jettySize=auto;html=1;exitX=1;exitY=0.5;exitDx=0;exitDy=0;entryX=0;entryY=0.5;entryDx=0;entryDy=0;jumpStyle=gap;" parent="1" source="6N6tjkP8SVQyuSS9ViZL-40" target="NNrOqyB_ExLqhprsF-vT-5" edge="1">
          <mxGeometry relative="1" as="geometry" />
        </mxCell>
        <mxCell id="6N6tjkP8SVQyuSS9ViZL-40" value="&lt;b&gt;erp_loc_a101&lt;/b&gt;" style="rounded=1;whiteSpace=wrap;html=1;fillColor=#EBEBEB;strokeColor=#DBDBDB;" parent="1" vertex="1">
          <mxGeometry x="620" y="470" width="160" height="40" as="geometry" />
        </mxCell>
        <mxCell id="NNrOqyB_ExLqhprsF-vT-24" style="rounded=0;orthogonalLoop=1;jettySize=auto;html=1;exitX=1;exitY=0.5;exitDx=0;exitDy=0;entryX=0;entryY=0.5;entryDx=0;entryDy=0;jumpStyle=gap;" parent="1" source="6N6tjkP8SVQyuSS9ViZL-41" target="NNrOqyB_ExLqhprsF-vT-4" edge="1">
          <mxGeometry relative="1" as="geometry" />
        </mxCell>
        <mxCell id="6N6tjkP8SVQyuSS9ViZL-41" value="&lt;b&gt;erp_px_cat_g1v2&lt;/b&gt;" style="rounded=1;whiteSpace=wrap;html=1;fillColor=#EBEBEB;strokeColor=#DBDBDB;" parent="1" vertex="1">
          <mxGeometry x="620" y="520" width="160" height="40" as="geometry" />
        </mxCell>
        <mxCell id="NNrOqyB_ExLqhprsF-vT-1" value="" style="rounded=1;whiteSpace=wrap;html=1;fillColor=none;strokeColor=#d6b656;arcSize=7;" parent="1" vertex="1">
          <mxGeometry x="880" y="210" width="200" height="390" as="geometry" />
        </mxCell>
        <mxCell id="NNrOqyB_ExLqhprsF-vT-2" value="&lt;b&gt;&lt;font style=&quot;font-size: 18px;&quot;&gt;Gold Layer&lt;/font&gt;&lt;/b&gt;" style="rounded=1;whiteSpace=wrap;html=1;fillColor=#fff2cc;strokeColor=#d6b656;" parent="1" vertex="1">
          <mxGeometry x="880" y="160" width="200" height="40" as="geometry" />
        </mxCell>
        <mxCell id="NNrOqyB_ExLqhprsF-vT-3" value="&lt;b&gt;fact_sales&lt;/b&gt;" style="rounded=1;whiteSpace=wrap;html=1;fillColor=#fff2cc;strokeColor=#d6b656;" parent="1" vertex="1">
          <mxGeometry x="900" y="240" width="160" height="40" as="geometry" />
        </mxCell>
        <mxCell id="NNrOqyB_ExLqhprsF-vT-4" value="&lt;b&gt;dim_products&lt;/b&gt;" style="rounded=1;whiteSpace=wrap;html=1;fillColor=#fff2cc;strokeColor=#d6b656;" parent="1" vertex="1">
          <mxGeometry x="900" y="380" width="160" height="40" as="geometry" />
        </mxCell>
        <mxCell id="NNrOqyB_ExLqhprsF-vT-5" value="&lt;b&gt;dim_customers&lt;/b&gt;" style="rounded=1;whiteSpace=wrap;html=1;fillColor=#fff2cc;strokeColor=#d6b656;" parent="1" vertex="1">
          <mxGeometry x="900" y="520" width="160" height="40" as="geometry" />
        </mxCell>
        <mxCell id="vD-Vfs3tnq3sYsXFff1t-1" value="&lt;b&gt;&lt;font style=&quot;font-size: 32px;&quot;&gt;Data Flow&lt;/font&gt;&lt;/b&gt;" style="text;html=1;align=left;verticalAlign=middle;whiteSpace=wrap;rounded=0;" vertex="1" parent="1">
          <mxGeometry x="39.99999999999999" y="80" width="200" height="30" as="geometry" />
        </mxCell>
      </root>
    </mxGraphModel>
  </diagram>
</mxfile>
